<?xml version="1.0" encoding="UTF-8"?><svg version="1.1" viewBox="0 0 340 340" xmlns="http://www.w3.org/2000/svg"><g fill="#000"><path d="M18.567 106.965l0-.0001c.7591-2.0746-.3072-4.3719-2.3818-5.131 -.1111-.0407-.224-.0764-.3383-.1071l0 0c-2.0658-.4976-4.1708.6587-4.859 2.6689l0-.0001c-.586 1.6337-1.0499 3.3086-1.3881 5.011l-.0001 0c-1.6713 8.4475.5472 17.1987 6.041 23.8299l0 0c4.4392 5.4213 10.6911 9.0521 17.6 10.2209 -1.671 7.448-1.171 18.311 8.226 26.288l0 0c5.4325 4.5683 12.2872 7.1008 19.385 7.1619l0 0c6.0995.0688 12.1235-1.3538 17.5479-4.1441 4.713 4.895 16.4 14.444 35.879 14.442l-.0001 0c5.1366-.0292 10.2533-.6412 15.252-1.824 1.323.82 2.68 1.634 4.114 2.435l0 0c8.2244 4.6911 13.8432 12.895 15.2449 22.259 1.808 11.883 2.894 31.54-2.182 57.615 -.1.458-10.273 45.941-39.677 60.434l0-.0001c-1.9606.9681-2.7827 3.3296-1.847 5.306l0 0c.7091 1.4233 2.174 2.3114 3.764 2.2819h20.8l-.0001-.0001c2.1024.035 3.8932-1.5204 4.153-3.607l0-.0001c.217-2.1985-1.3892-4.1566-3.5877-4.3737 -.1308-.013-.262-.0194-.3934-.0194h-7.82c23.867-20.044 32.05-56.572 32.448-58.409 5.312-27.284 4.159-47.922 2.257-60.431l0 0c-1.7812-11.804-8.8776-22.1389-19.254-28.041 -25.2-14.076-30.624-31.032-31.458-40.673l0 0c4.6142 1.863 9.4728 3.0519 14.4259 3.5299 7.984 24.383 31.968 28.79 33.022 28.971l-.0001-.0001c2.1771.3744 4.2456-1.087 4.6201-3.2642 .0385-.224.0578-.4507.0578-.6779 0-14.241-.618-29.418-1.121-39.425 9.929 1.333 32.345 2.886 49.449-6.758l-.0001-.0001c2.5518 6.1591 7.3077 11.146 13.3389 13.987 -4.487 7.823-12.656 17.906-26.041 21.17 -.3-4.347-.692-11.489-.782-19.388l-.0001-.0001c-.0182-2.1963-1.8037-3.9671-4.0001-3.967h-.046l0 0c-2.1838-.0007-3.9546 1.769-3.9552 3.9528 -.0001.0133 0 .0267.0001.0401 .148 13.161 1.1 23.995 1.143 24.449l-.0001-.0001c.1843 2.0632 1.9134 3.6444 3.9849 3.644l-.0001 0c.1671-.0004.334-.0108.5-.031 20.055-2.521 31.336-17.015 36.881-27.207l-.0001-.0001c2.5984.5822 5.2409.9471 7.9 1.091 .6.034 1.17.04 1.748.051 -.1.436-.2.871-.317 1.3l0-.0001c-2.0587 7.4287-6.5619 13.9464-12.782 18.5l-.0001 0c-5.6565 4.2116-10.9878 8.843-15.949 13.855 -10.568 10.893-15.2 21.981-15.018 35.953 .651 50.213 15.247 81.479 27.377 98.866l0 0c4.7942 6.9617 10.4197 13.3126 16.752 18.9119h-3.823l-.0001-.0001c-2.1025-.0351-3.8933 1.5203-4.153 3.607l-.0001 0c-.2171 2.1984 1.3891 4.1565 3.5876 4.3736 .1307.0129.2619.0193.3933.0193h16.083l-.0001-.0001c1.5728.0302 3.0271-.8329 3.754-2.228l-.0001 0c.9595-1.9465.1946-4.3031-1.725-5.315 -.122-.065-12.384-6.667-24.628-24.408 -11.345-16.438-25-46.077-25.619-93.931 -.151-11.687 3.784-21.025 12.761-30.279l-.0001 0c4.6582-4.7032 9.664-9.0488 14.975-13.0001l0-.0001c7.6694-5.6323 13.216-13.6856 15.744-22.859 .355-1.331.638-2.686.862-4.051l0-.0001c10.5356-2.055 19.3801-9.1733 23.6399-19.026 7.167 1.978 23.121 5.254 38.377.68l-.0001 0c2.1109-.6514 3.2941-2.8907 2.6428-5.0016 -.6443-2.0882-2.8452-3.2727-4.9429-2.6605 -17.483 5.242-37.02-1.665-37.212-1.733l-.025-.007c-.009 0-.016-.008-.024-.011l0 0c-6.7351-2.4201-12.709-6.5808-17.314-12.059l0 0c-1.3411-1.7556-3.8513-2.0917-5.6069-.7506 -1.7388 1.3281-2.0878 3.8069-.7832 5.5635l-.0001-.0001c4.6702 5.686 10.5839 10.2236 17.285 13.2629 -2.5 5.358-9.363 15.329-25.6 14.386 -16.9-.983-21.454-10.3-22.645-14.426 4.437-3.842 13.886-14.034 10.5-28.93l-.0001-.0001c-.5242-2.1461-2.6888-3.4609-4.8349-2.9368 -2.0976.5123-3.41 2.5968-2.9652 4.7097 3.057 13.449-8.842 21.887-9.361 22.247 -.017.012-.029.027-.045.039 -.016.012-.056.033-.082.052 -18.666 13.934-50.656 8.017-52.73 7.613 -20.266-5.393-22.431-18.3-22.526-18.944l0 0c-.2778-2.1918-2.2798-3.7433-4.4715-3.4656 -2.1918.2777-3.7433 2.2797-3.4656 4.4714 .091.738 2.418 17.507 25.691 24.873 .454 8.657 1.057 22.318 1.192 35.807 -6-2.218-16.169-7.651-21.17-19.809l-.0001 0c2.0763-.2388 4.1289-.6519 6.136-1.235l-.0001 0c2.0461-.5658 3.3266-2.5946 2.957-4.685l-.0001-.0001c-.4408-2.1648-2.553-3.5623-4.7177-3.1215 -.1164.0236-.2316.0525-.3454.0864 -14.367 4.286-28.724-4.132-28.86-4.213 -.02-.012-.042-.017-.062-.029l0 0c-.1634-.0903-.3328-.1692-.507-.2361 -.082-.033-.161-.077-.245-.105l0 0c-.1642-.0482-.3312-.0863-.5-.114 -.1-.019-.2-.052-.311-.064h-.024l-.0001-.0001c-.5458-.0577-1.0975-.0008-1.62.167h-.011c-27.255 8.725-36.589-7.619-36.959-8.293l0 0c-.6271-1.1861-1.807-1.9788-3.142-2.111 -11.114-1.1-19.023-4.971-23.507-11.5 -7.407-10.785-3.419-25.725-3.38-25.866l0-.0001c.1928-.6885.1977-1.4161.0139-2.107 -3.938-14.806.87-22.017 5.208-25.39l-.0001-.0001c.5195 5.8362 2.9097 11.3487 6.8149 15.717l-.0001-.0001c1.4712 1.6479 3.9998 1.7911 5.6478.3198 .1175-.105.2288-.2168.3331-.3349l0-.0001c1.3285-1.6083 1.2601-3.952-.1601-5.48l0 0c-3.744-4.3399-5.415-10.0938-4.578-15.764 7.366-22.238 25.627-19.6 26.384-19.482l-.0001-.0001c1.879.3214 3.7237-.7278 4.408-2.507 1.765-4.589 8.532-7.05 10.979-7.608 .1-.022.2-.049.3-.079 9.5-2.9 16.921 2.923 17.214 3.158l0 0c1.4797 1.2125 3.6109 1.2075 5.085-.0121 14.639-12.108 36.234-10.362 48.975-7.866l-.0001 0c-4.4255 1.5905-8.9881 2.7698-13.63 3.5229l-.0001 0c-2.0388.3052-3.5358 2.0738-3.5 4.135l-.0001-.0001c.0907 2.2072 1.9537 3.923 4.161 3.8322 .1594-.0066.3184-.0227.4759-.0483 14.888-2.408 24.236-7.8 26.134-8.974 28.4-12.035 50.515 1.306 51.436 1.876l0 0c1.1503.7216 2.5884.8094 3.818.2329 15.924-7.445 27.535-.576 28-.293l0 0c.5939.3722 1.2754.5815 1.976.6069 12.86.471 21.945 3.717 27 9.647l0 0c3.0125 3.4924 4.5377 8.0257 4.249 12.6289 -.121.574-1.714 6.926-12.711 6.629l-.0001-.0001c-2.1983-.0635-4.0318 1.6671-4.0953 3.8654 -.0041.1409-.0007.2819.0102.4225l-.0001-.0001c.2148 2.1133 1.9967 3.7197 4.1209 3.715 .2 0 .4 0 .6 0 10.549 0 16.088-4.906 18.518-9.337 7.166 2 12.421 5.526 15.646 10.52 5.787 8.962 3.335 19.994 3.312 20.091l-.0001 0c-.2768 1.1655-.0167 2.3937.709 3.347l-.0001-.0001c2.2897 2.9659 3.8583 6.4236 4.582 10.1l0 0c.7804 4.0877.1143 8.3196-1.8841 11.9699l-.0001 0c-.7898 1.6267-.83 3.5171-.11 5.1759 2.2 4.266 5.121 11.91 2.634 19.175 -1.962 5.732-7.054 10.447-15.134 14.015l-.0001 0c-1.0779.4757-1.8913 1.4024-2.223 2.533 -.251.858-6.478 20.923-34.41 14.586l0 0c-1.4844-.3372-3.0315.1974-3.991 1.3789 -.139.171-14.171 17.1-35.66 13.173l0 0c-2.1735-.3953-4.2559 1.0462-4.6512 3.2197 -.0218.1196-.0381.2401-.0489.3612l-.0001 0c-.1249 2.1276 1.3871 4.0018 3.493 4.33l-.0001-.0001c2.5716.4621 5.1791.6963 7.792.7 17.362 0 29.356-10.495 33.606-14.877 28.045 5.291 38.285-12.821 40.85-18.781 9.337-4.451 15.372-10.515 17.949-18.044 3.2-9.342.205-18.591-2.5-24.233l-.0001 0c2.4458-5.0267 3.198-10.7102 2.144-16.2l0 0c-.8327-4.2891-2.5391-8.3609-5.013-11.962 .631-4.25 1.382-14.878-4.667-24.313 -4.4231-6.8921-11.4331-11.6371-20.8831-14.1361l0 0c-.341-5.5408-2.4463-10.827-6.008-15.0851 -6.413-7.642-17.164-11.869-31.966-12.57 -3.6-1.876-16.316-7.286-32.72-.448l0 0c-17.4315-8.7077-37.7921-9.3868-55.765-1.8601 -7.482-2.334-40.472-11.233-63.348 5.24l0 0c-6.5505-3.9285-14.4392-4.9572-21.778-2.8401 -1.435.345-10.711 2.813-15.167 9.791 -6.916-.113-23.861 2.023-31.73 23.426l-.0001 0c-5.0257 2.0913-9.242 5.749-12.0221 10.4289 -4 6.832-4.74 15.476-2.206 25.7 -.949 4.193-3.551 19.288 4.723 31.4 5.6 8.194 14.832 13.159 27.462 14.773 3 4.057 11.576 13.2 28.02 13.2l-.0001 0c3.9987-.0294 7.9809-.5162 11.8689-1.451 .439 9.22 4.213 25.117 22.282 39.73 -25.467 2.759-37.267-12.833-37.8-13.554l0 0c-1.248-1.7343-3.6385-2.1816-5.429-1.016l-.0001 0c-4.7794 3.144-10.4039 4.756-16.123 4.6209l0 0c-5.2333-.0383-10.2898-1.8986-14.3-5.261 -10.317-8.757-4.637-21.573-4.4-22.1l0-.0001c.9336-2.0022.0675-4.3821-1.9346-5.3158 -.5508-.2569-1.1529-.3849-1.7605-.3743h-.432 -.035l-.0001 0c-6.3046.0017-12.2766-2.828-16.268-7.708l0 0c-3.9676-4.7818-5.5731-11.0948-4.3721-17.191l0-.0001c.2714-1.359.6476-2.695 1.125-3.9961Z"/><path d="M194.834 331.713l0 0c0 2.2091 1.7908 3.9999 4 3.9999h15.858l-.0001 0c.2541-.0014.5076-.0268.7569-.076 .092-.018.177-.049.265-.073l0-.0001c.1544-.0376.3063-.0847.4549-.141 .1-.04.2-.092.293-.141l-.0001 0c.1273-.0596.2512-.1264.371-.2 .1-.065.2-.14.291-.214 .073-.056.151-.1.221-.162 .029-.026.049-.057.078-.084l0-.0001c.103-.101.2008-.2071.293-.318 .079-.092.16-.181.23-.279l0-.0001c.0723-.1092.1391-.222.1999-.338 .064-.111.131-.22.183-.335 .052-.115.088-.238.13-.359 .042-.121.087-.249.117-.378 .03-.129.039-.237.056-.357l-.0001 0c.0222-.1421.0366-.2854.0429-.429 0-.039.012-.076.012-.115 0-.082-.02-.159-.024-.24l0 0c-.0072-.1441-.0219-.2876-.044-.43l-.0001-.0001c-.0222-.1234-.0506-.2456-.0851-.366l0 0c-.0327-.1287-.0721-.2555-.118-.38l0 0c-.0482-.1236-.1029-.2444-.164-.362 -.056-.112-.112-.222-.179-.33l-.0001-.0001c-.0782-.1214-.1627-.2385-.253-.351 -.05-.063-.086-.134-.141-.195 -19.834-22.361-25-66.73-25.055-67.175l-.0001-.0001c-.2712-2.1925-2.2684-3.75-4.4608-3.4788 -2.1559.2666-3.7049 2.2051-3.4893 4.3667 .2 1.756 4.627 39.872 21.848 64.941h-7.692l0-.0001c-2.2072.0022-3.9955 1.7918-3.996 3.9989Z"/><path d="M143.166 328.381l-.009.007 -.0001 0c-.219.1462-.423.3137-.609.4999 -.081.081-.142.174-.215.26l-.0001 0c-.099.1087-.1918.2229-.278.342l-.0001 0c-.0652.1069-.1249.217-.179.33l0-.0001c-.1487.2261-.2535.4781-.309.7429 -.036.119-.083.233-.108.356l0-.0001c-.0519.2574-.0783.5193-.0791.782v.012c0 .065.016.126.019.191l-.0001-.0001c.0052.1961.0249.3917.0589.5849 .025.128.072.248.109.372l-.0001-.0001c.0742.3217.2074.6268.3929.9 .032.055.052.113.088.167l.008.011c.013.019.028.035.04.053l-.0001-.0001c.1218.1737.2572.3375.4049.4899 .033.035.067.07.1.1l-.0001-.0001c.1634.1606.3404.3068.5289.437l.051.03 0 0c.1779.1149.3648.2152.559.2999 .045.02.089.042.136.061l0 0c.2063.0843.4194.1512.637.1999 .05.011.1.018.151.027l-.0001-.0001c.2333.045.4703.0691.7079.0719h28.488l0-.0001c.2535-.0014.5063-.0268.755-.0761 .09-.017.175-.048.263-.071l0-.0001c.1544-.0381.3063-.0855.4549-.142 .1-.039.193-.09.289-.137l-.0001 0c.128-.0602.2528-.127.374-.2 .1-.063.19-.135.283-.206 .072-.055.149-.1.218-.158 .069-.058.124-.119.189-.177v0c10.813-9.742 9.035-29.447 8.953-30.286l0 0c-.2448-2.1956-2.223-3.777-4.4186-3.5323 -2.1504.2397-3.7203 2.1458-3.5435 4.3022 .414 4.381.151 16.5-5.469 22.688h-15.87c20.389-21.254 20.05-55.534 20.022-57.1v-53.686 0c0-2.2092-1.7909-4-4-4 -2.2092 0-4 1.7908-4 4v53.759c.008.404.425 40.679-25.194 57.694Z"/><path d="M130.733 19.429l-.0001 0c-2.2092 0-4 1.7908-4 4 0 2.2091 1.7908 4 4 4h.012l0 0c2.2091.0074 4.006-1.7774 4.0135-3.9865 .0074-2.2092-1.7774-4.0061-3.9865-4.0135 0 0 0 0 0 0Z"/><path d="M172.36 198.535h-.0001c2.2091 0 4-1.7909 4-4v-1.591 0c0-2.2092-1.7909-4-4-4 -2.2092 0-4 1.7908-4 4v1.591l0 0c0 2.2091 1.7908 3.9999 4 3.9999Z"/></g></svg>